<svg width="101" height="103" viewBox="0 0 101 103" fill="none" xmlns="http://www.w3.org/2000/svg">
<path d="M13.7107 98.0968L13.0693 97.7159C13.0091 97.6959 12.949 97.6758 12.9089 97.6758C12.8087 97.6758 12.7285 97.736 12.6483 97.8362L12.5882 97.9565C10.8442 100.823 9.24055 100.963 7.81731 100.963H7.03554C5.99317 100.923 5.65239 100.121 5.65239 99.059V88.5752H6.87517C7.05558 88.5752 7.43645 88.4549 7.43645 88.2745V87.6731C7.43645 87.4726 7.25604 87.3524 7.05558 87.3524H0.981775C0.781319 87.3524 0.681091 87.4726 0.681091 87.6731V88.2745C0.681091 88.4549 0.781319 88.5752 0.981775 88.5752H1.00182C2.10433 88.5752 2.46515 89.377 2.46515 90.4795V99.2795C2.46515 100.382 2.10433 101.184 1.00182 101.184H0.981775C0.781319 101.184 0.681091 101.304 0.681091 101.484V102.086C0.681091 102.286 0.781319 102.387 0.981775 102.387H11.0246C11.185 102.387 11.3052 102.387 11.4255 102.487L11.5257 102.587C11.5859 102.647 11.646 102.667 11.7062 102.667C11.8064 102.667 11.9066 102.607 11.9467 102.487L13.831 98.5178C13.8711 98.4576 13.8911 98.3975 13.8911 98.3574C13.8911 98.2572 13.831 98.1569 13.7107 98.0968Z" fill="#1F1F1F"/>
<path d="M17.2809 90.5597C17.6417 90.5597 17.9223 90.4193 18.2831 90.0585C18.644 89.7178 18.7843 89.4171 18.7843 89.0562C18.7843 88.6954 18.644 88.4148 18.2831 88.054C17.9223 87.6931 17.6417 87.5528 17.2809 87.5528C16.92 87.5528 16.6194 87.6931 16.2786 88.054C15.9178 88.4148 15.7774 88.6954 15.7774 89.0562C15.7774 89.4171 15.9178 89.7178 16.2786 90.0585C16.6194 90.4193 16.92 90.5597 17.2809 90.5597ZM20.2075 101.184H20.1474C19.1651 101.184 18.684 100.362 18.684 99.2795V91.7624C18.664 91.7424 18.664 91.7424 18.6239 91.7424H18.5838C18.5638 91.7424 18.5237 91.7624 18.5036 91.7824C17.9624 92.3437 16.92 93.1255 14.8153 93.8271C14.6148 93.8872 14.5146 93.9273 14.5146 94.0877V94.7692C14.5146 94.9096 14.5547 95.0098 14.7551 95.0298C15.8576 95.1501 15.9378 96.2526 15.9378 97.1547V99.2795C15.9578 100.362 15.4768 101.184 14.4945 101.184H14.4544C14.254 101.184 14.1537 101.284 14.1537 101.484V102.086C14.1537 102.286 14.2941 102.387 14.4945 102.387H20.1674C20.3679 102.387 20.5082 102.286 20.5082 102.086V101.484C20.5082 101.284 20.408 101.184 20.2075 101.184Z" fill="#1F1F1F"/>
<path d="M27.9667 100.943L27.646 100.422C27.5658 100.322 27.4856 100.282 27.4054 100.282C27.3453 100.282 27.2852 100.302 27.225 100.342H27.205C26.784 100.602 26.2227 100.923 25.7817 100.923C25.3006 100.923 24.9398 100.602 24.9398 99.5601V93.8271H27.6259C27.8063 93.8271 27.9266 93.7269 27.9266 93.5264V92.6644C27.9266 92.464 27.8063 92.3638 27.6259 92.3638H24.9398V88.9961C24.9398 88.956 24.9198 88.956 24.8797 88.956H24.8596C24.8196 88.956 24.7995 88.9761 24.7594 88.9961C23.9576 89.6977 22.8952 90.3392 22.3139 90.6599C22.1735 90.7401 22.1334 90.8603 22.1334 91.0207V92.3638H20.6701C20.4697 92.3638 20.3694 92.464 20.3694 92.6644V93.2658C20.3694 93.4663 20.4697 93.5665 20.6701 93.5665C22.1134 93.5665 22.1334 94.7692 22.1334 95.8517V99.5601C22.1334 101.926 23.2159 102.647 24.4387 102.647C25.441 102.647 26.5435 102.186 27.2651 101.725L27.8665 101.344C27.9667 101.284 28.0268 101.204 28.0268 101.124C28.0268 101.064 28.0068 101.003 27.9667 100.943Z" fill="#1F1F1F"/>
<path d="M35.9834 100.943L35.6626 100.422C35.5825 100.322 35.5023 100.282 35.4221 100.282C35.362 100.282 35.3018 100.302 35.2417 100.342H35.2216C34.8007 100.602 34.2394 100.923 33.7984 100.923C33.3173 100.923 32.9565 100.602 32.9565 99.5601V93.8271H35.6426C35.823 93.8271 35.9433 93.7269 35.9433 93.5264V92.6644C35.9433 92.464 35.823 92.3638 35.6426 92.3638H32.9565V88.9961C32.9565 88.956 32.9364 88.956 32.8964 88.956H32.8763C32.8362 88.956 32.8162 88.9761 32.7761 88.9961C31.9743 89.6977 30.9118 90.3392 30.3305 90.6599C30.1902 90.7401 30.1501 90.8603 30.1501 91.0207V92.3638H28.6868C28.4863 92.3638 28.3861 92.464 28.3861 92.6644V93.2658C28.3861 93.4663 28.4863 93.5665 28.6868 93.5665C30.1301 93.5665 30.1501 94.7692 30.1501 95.8517V99.5601C30.1501 101.926 31.2326 102.647 32.4553 102.647C33.4576 102.647 34.5601 102.186 35.2818 101.725L35.8831 101.344C35.9834 101.284 36.0435 101.204 36.0435 101.124C36.0435 101.064 36.0235 101.003 35.9834 100.943Z" fill="#1F1F1F"/>
<path d="M40.913 99.2795V86.3902C40.893 86.3501 40.893 86.3501 40.8729 86.3501H40.8128C40.7927 86.3501 40.7727 86.3701 40.7326 86.3902C40.1914 86.7911 39.0889 87.5528 36.964 88.2544C36.7836 88.3146 36.6834 88.3547 36.6834 88.515V89.1966C36.6634 89.3369 36.7235 89.4371 36.9039 89.4572C38.0265 89.5774 38.1066 90.6799 38.1066 91.7624V99.2795C38.1267 100.362 37.6255 101.184 36.6433 101.184C36.4429 101.184 36.3426 101.284 36.3426 101.484V102.086C36.3426 102.286 36.4429 102.387 36.6433 102.387H42.3964C42.5768 102.387 42.6971 102.286 42.6971 102.086V101.484C42.6971 101.284 42.5768 101.184 42.3964 101.184C41.4142 101.184 40.913 100.362 40.913 99.2795Z" fill="#1F1F1F"/>
<path d="M45.6286 98.7984L51.4418 96.2526C51.5821 96.2125 51.6222 96.1123 51.6222 96.0121C51.6222 94.4886 50.1388 92.1433 47.4928 92.1433C45.1274 92.1433 42.722 93.5665 42.722 97.2749C42.722 100.182 44.7666 102.627 48.0942 102.627C50.1388 102.627 51.3616 101.685 52.1233 100.282C52.1835 100.182 52.2436 100.041 52.2436 99.941C52.2436 99.8809 52.2236 99.8207 52.1634 99.7806C51.522 99.3998 51.4819 99.3998 51.3616 99.3998C51.3215 99.3998 51.2413 99.4198 51.2012 99.4799C50.4996 100.502 49.4974 100.963 48.6354 100.963C47.0919 100.963 46.0896 99.9209 45.6286 98.7984ZM48.6154 95.9319L45.388 97.5556C45.2277 97.0745 45.2076 96.413 45.2076 96.0121C45.2076 94.7091 45.8892 93.7269 46.9917 93.7269C47.9138 93.7269 48.6154 94.649 48.6154 95.9319Z" fill="#1F1F1F"/>
<path d="M70.2776 98.0968L69.6361 97.7159C69.576 97.6959 69.5158 97.6758 69.4758 97.6758C69.3755 97.6758 69.2953 97.736 69.2152 97.8362L69.155 97.9565C67.4111 100.823 65.8074 100.963 64.3842 100.963H63.6024C62.56 100.923 62.2193 100.121 62.2193 99.059V88.5752H63.442C63.6224 88.5752 64.0033 88.4549 64.0033 88.2745V87.6731C64.0033 87.4726 63.8229 87.3524 63.6224 87.3524H57.5486C57.3482 87.3524 57.248 87.4726 57.248 87.6731V88.2745C57.248 88.4549 57.3482 88.5752 57.5486 88.5752H57.5687C58.6712 88.5752 59.032 89.377 59.032 90.4795V99.2795C59.032 100.382 58.6712 101.184 57.5687 101.184H57.5486C57.3482 101.184 57.248 101.304 57.248 101.484V102.086C57.248 102.286 57.3482 102.387 57.5486 102.387H67.5915C67.7518 102.387 67.8721 102.387 67.9924 102.487L68.0926 102.587C68.1527 102.647 68.2129 102.667 68.273 102.667C68.3732 102.667 68.4735 102.607 68.5136 102.487L70.3979 98.5178C70.4379 98.4576 70.458 98.3975 70.458 98.3574C70.458 98.2572 70.3979 98.1569 70.2776 98.0968Z" fill="#1F1F1F"/>
<path d="M73.968 92.5442C72.0637 93.3861 70.9612 95.2704 70.9612 97.2549C70.9612 97.9966 71.1215 98.7383 71.4222 99.4599C72.3042 101.444 74.2286 102.627 76.2331 102.627C76.9147 102.627 77.5962 102.487 78.2577 102.186C80.142 101.344 81.2646 99.4799 81.2646 97.4754C81.2646 96.7537 81.1042 96.0121 80.7835 95.2904C79.9015 93.3059 77.9771 92.1232 75.9926 92.1232C75.3111 92.1232 74.6295 92.2635 73.968 92.5442ZM74.5694 93.9073C74.83 93.787 75.1106 93.7269 75.3712 93.7269C76.594 93.7269 77.6764 94.9697 78.2978 96.3929C78.6386 97.1547 78.8591 97.9966 78.8591 98.7383C78.8591 99.6604 78.5183 100.462 77.6564 100.843C77.3757 100.963 77.1151 101.023 76.8546 101.023C75.6117 101.023 74.5493 99.7806 73.9079 98.3574C73.5671 97.5756 73.3466 96.7537 73.3466 96.0121C73.3466 95.09 73.6874 94.2881 74.5694 93.9073Z" fill="#1F1F1F"/>
<path d="M83.4586 92.2034V92.3638H81.9753C81.7748 92.3638 81.6746 92.464 81.6746 92.6644V93.2658C81.6746 93.4663 81.7748 93.5665 81.9753 93.5665C83.4185 93.5665 83.4386 94.7692 83.4386 95.8517V99.2795C83.4586 100.362 82.9575 101.184 81.9753 101.184C81.7748 101.184 81.6746 101.284 81.6746 101.484V102.086C81.6746 102.286 81.7748 102.387 81.9753 102.387H87.6281C87.8085 102.387 87.9288 102.286 87.9288 102.086V101.484C87.9288 101.284 87.8085 101.184 87.6281 101.184C86.6459 101.184 86.1447 100.362 86.1447 99.2795V93.8271H88.8308C89.0113 93.8271 89.1315 93.7269 89.1315 93.5264V92.6644C89.1315 92.464 89.0113 92.3638 88.8308 92.3638H86.1447V91.0408C86.1447 89.5173 86.2851 88.495 86.7862 87.8936C87.0267 87.5929 87.3274 87.4526 87.6281 87.4526C88.1092 87.4526 88.5703 87.8535 88.5703 88.5952C88.5703 88.9761 88.45 89.4171 88.1894 89.9182C88.0892 90.0986 88.1092 90.3392 88.2896 90.3392L88.3297 90.3191L90.4345 89.8581C90.7352 89.7779 90.8554 89.6777 90.9356 89.4772C91.076 89.1364 91.1361 88.7957 91.1361 88.4749C91.1361 87.2722 90.1138 86.3501 87.9889 86.3501C84.481 86.3501 83.4586 89.818 83.4586 92.2034Z" fill="#1F1F1F"/>
<path d="M97.0918 100.943L96.7711 100.422C96.6909 100.322 96.6107 100.282 96.5305 100.282C96.4704 100.282 96.4103 100.302 96.3501 100.342H96.3301C95.9091 100.602 95.3478 100.923 94.9068 100.923C94.4257 100.923 94.0649 100.602 94.0649 99.5601V93.8271H96.751C96.9314 93.8271 97.0517 93.7269 97.0517 93.5264V92.6644C97.0517 92.464 96.9314 92.3638 96.751 92.3638H94.0649V88.9961C94.0649 88.956 94.0449 88.956 94.0048 88.956H93.9847C93.9447 88.956 93.9246 88.9761 93.8845 88.9961C93.0827 89.6977 92.0203 90.3392 91.439 90.6599C91.2986 90.7401 91.2585 90.8603 91.2585 91.0207V92.3638H89.7952C89.5948 92.3638 89.4945 92.464 89.4945 92.6644V93.2658C89.4945 93.4663 89.5948 93.5665 89.7952 93.5665C91.2385 93.5665 91.2585 94.7692 91.2585 95.8517V99.5601C91.2585 101.926 92.341 102.647 93.5638 102.647C94.5661 102.647 95.6686 102.186 96.3902 101.725L96.9916 101.344C97.0918 101.284 97.1519 101.204 97.1519 101.124C97.1519 101.064 97.1319 101.003 97.0918 100.943Z" fill="#1F1F1F"/>
<path d="M98.4726 86.3501V86.5538H97.9242V88.0598H97.7005V86.5538H97.1521V86.3501H98.4726Z" fill="#1F1F1F"/>
<path d="M98.6698 86.3501H98.9855L99.453 87.7956L99.9171 86.3501H100.23V88.0598H100.02V87.0507C100.02 87.0158 100.021 86.958 100.022 86.8773C100.024 86.7966 100.025 86.7101 100.025 86.6178L99.5604 88.0598H99.3422L98.8747 86.6178V86.6702C98.8747 86.7121 98.8754 86.7761 98.8769 86.8622C98.8791 86.9475 98.8802 87.0104 98.8802 87.0507V88.0598H98.6698V86.3501Z" fill="#1F1F1F"/>
<rect width="19.6262" height="72.5052" transform="matrix(0.607015 0.79469 -0.795198 0.606349 57.9347 0.0517578)" fill="#E0B75B"/>
<rect x="42.5643" y="53.1797" width="19.2127" height="19.2123" fill="#85729F"/>
<path d="M63.1039 38.6143L63.1045 72.3923H96.9113L63.1039 38.6143Z" fill="#4A6789"/>
<ellipse cx="50.4554" cy="43.1113" rx="10.0947" ry="10.086" fill="#97C6A8"/>
<path d="M38.6951 72.3921C38.0636 63.399 30.8397 56.3067 22.0208 56.3067C13.2019 56.3067 5.97796 63.399 5.34647 72.3921L38.6951 72.3921Z" fill="#EFB496"/>
</svg>
